#N canvas 794 243 450 300 10;
#X obj 97 139 comparator~;
#X floatatom 72 62 5 0 0 0 - - -;
#X obj 72 81 sig~;
#X floatatom 161 56 5 0 0 0 - - -;
#X obj 161 75 sig~;
#X obj 203 171 bng 15 250 50 0 empty empty empty 17 7 0 10 -262144
-1 -1;
#X obj 203 191 print~;
#X text 4 246 comparator~;
#X text 3 264 simulates a comparator in an analog computer.;
#X connect 0 0 6 0;
#X connect 1 0 2 0;
#X connect 1 0 5 0;
#X connect 2 0 0 0;
#X connect 3 0 4 0;
#X connect 3 0 5 0;
#X connect 4 0 0 1;
#X connect 5 0 6 0;
