#N canvas 17 142 1600 817 10;
#N canvas 0 0 450 300 (subpatch) 0;
#X array pulse 16 float 2;
#X coords 0 1 16 -1 200 140 1 0 0;
#X restore 1064 220 graph;
#X obj 453 112 phasor~;
#X floatatom 449 85 5 0 0 0 - - -;
#X obj 455 432 dac~ 3 4 5 6;
#X obj 453 134 *~ 16;
#X obj 593 195 sig~;
#X obj 511 12 loadbang;
#X obj 366 377 metro 10;
#X obj 366 431 print~;
#X obj 354 329 tgl 15 0 empty empty empty 17 7 0 10 -262144 -1 -1 0
1;
#X obj 951 370 tabwrite pulse;
#X obj 924 170 f;
#X obj 967 168 + 1;
#X obj 923 210 / 16;
#X obj 924 236 * 6.3;
#X obj 924 258 sin;
#X obj 962 189 t f f;
#X obj 917 139 until;
#X msg 917 103 16;
#X msg 1060 107 \; pulse 0 1 0 0 0 0 0 0 0 0 0 0 0 0 0 0 0;
#X obj 502 244 tank~;
#X obj 450 174 tabread~ pulse;
#X floatatom 638 63 5 0 0 0 - - -;
#X obj 637 99 / 10000;
#X msg 648 35 9999;
#X msg 451 56 0.25;
#X msg 988 110 0;
#X obj 924 280 * 0.5;
#X obj 932 320 + 0.5;
#X obj 532 316 *~ 0.0001;
#X text 1055 76 dirac pulse;
#X text 913 76 sinusoidal pulse;
#X text 38 73 tank~ performs Howard Odum's 'TANK' model from Odum \,
H. T. "Ecological and General Systems" \, 1983 1st inlet : J (inflow)
2nd inlet : k (leak coefficient) Outlet : Quantity in tank;
#X connect 1 0 4 0;
#X connect 2 0 1 0;
#X connect 4 0 21 0;
#X connect 5 0 20 1;
#X connect 6 0 25 0;
#X connect 6 0 18 0;
#X connect 6 0 24 0;
#X connect 7 0 8 0;
#X connect 9 0 7 0;
#X connect 11 0 12 0;
#X connect 11 0 16 0;
#X connect 12 0 11 1;
#X connect 13 0 14 0;
#X connect 14 0 15 0;
#X connect 15 0 27 0;
#X connect 16 0 13 0;
#X connect 16 1 10 1;
#X connect 17 0 11 0;
#X connect 18 0 17 0;
#X connect 20 0 8 0;
#X connect 20 0 29 0;
#X connect 21 0 20 0;
#X connect 21 0 3 2;
#X connect 22 0 23 0;
#X connect 23 0 5 0;
#X connect 24 0 22 0;
#X connect 25 0 2 0;
#X connect 26 0 11 0;
#X connect 27 0 28 0;
#X connect 28 0 10 0;
#X connect 29 0 3 1;
#X connect 29 0 3 0;
#X connect 29 0 3 3;
