#N canvas 768 83 825 757 10;
#X obj 575 543 metro;
#X floatatom 484 1 5 0 0 0 - - -;
#X msg 597 418 1;
#X msg 597 439 0;
#X msg 482 -20 200;
#X floatatom 125 -26 5 0 0 0 - - -;
#X floatatom 32 73 5 0 0 0 - - -;
#X obj 24 111 osc~;
#X msg 66 -10 mfas;
#X obj 110 2 * 1e-05;
#X obj 118 569 war~ - - - - - - - - - - - - - - - - - - - - - - - -
- - -;
#X floatatom -85 329 5 0 0 0 - - -;
#X text -49 327 k0;
#X floatatom -73 351 5 0 0 0 - - -;
#X text -37 349 k1;
#X floatatom -66 371 5 0 0 0 - - -;
#X text -30 369 k2;
#X floatatom -50 394 5 0 0 0 - - -;
#X floatatom -38 416 5 0 0 0 - - -;
#X floatatom -31 436 5 0 0 0 - - -;
#X floatatom -23 458 5 0 0 0 - - -;
#X floatatom -11 480 5 0 0 0 - - -;
#X floatatom -13 510 5 0 0 0 - - -;
#X floatatom 3 533 5 0 0 0 - - -;
#X floatatom 15 555 5 0 0 0 - - -;
#X floatatom 22 575 5 0 0 0 - - -;
#X text -14 392 k3;
#X text -2 414 k4;
#X text 19 426 k5;
#X text 27 448 k6;
#X text 39 470 k7;
#X text 23 508 k8;
#X text 39 531 k9;
#X text 51 553 k10;
#X text 58 572 k11;
#X floatatom 202 322 5 0 0 0 - - -;
#X floatatom 214 344 5 0 0 0 - - -;
#X floatatom 221 364 5 0 0 0 - - -;
#X floatatom 237 387 5 0 0 0 - - -;
#X floatatom 249 409 5 0 0 0 - - -;
#X floatatom 256 429 5 0 0 0 - - -;
#X floatatom 390 319 5 0 0 0 - - -;
#X floatatom 402 341 5 0 0 0 - - -;
#X floatatom 409 361 5 0 0 0 - - -;
#X floatatom 425 384 5 0 0 0 - - -;
#X floatatom 437 406 5 0 0 0 - - -;
#X floatatom 444 426 5 0 0 0 - - -;
#X floatatom 452 468 5 0 0 0 - - -;
#X floatatom 464 490 5 0 0 0 - - -;
#X text 238 320 k12;
#X text 250 342 k13;
#X text 257 362 k14;
#X text 270 385 k15;
#X text 285 407 k16;
#X text 292 427 k17;
#X text 426 317 assetA;
#X text 438 339 assetB;
#X text 445 359 DefenseA;
#X text 461 383 DefenseB;
#X text 473 404 DA;
#X text 480 423 DB;
#X text 487 466 DMA;
#X text 500 488 DMB;
#X msg -127 329 4;
#X msg -118 353 4;
#X msg -108 375 0.5;
#X msg -97 398 0.1;
#X msg -83 416 0.5;
#X msg -74 440 0.1;
#X msg -50 513 0.05;
#X msg -37 535 0.01;
#X msg -79 558 0.05;
#X msg -15 580 0.05;
#X msg 145 328 0.1;
#X msg 144 352 0.1;
#X msg 161 396 0.01;
#X msg 169 416 0.01;
#X msg 177 443 0.01;
#X msg 266 309 0.01;
#X msg 276 333 0.01;
#X msg 280 355 0;
#X msg 289 383 0;
#X msg 306 405 0;
#X msg 310 428 0;
#X msg 409 468 0;
#X msg 421 491 0;
#X obj -4 672 print~ productivity;
#X obj -5 688 print~ A;
#X obj -4 704 print~ B;
#X obj 248 -41 bang;
#X obj 240 -71 bng 15 250 50 0 empty empty empty 17 7 0 10 -262144
-1 -1;
#X obj 267 -70 loadbang;
#X obj 279 663 osc~;
#X obj 343 658 osc~;
#X msg 146 -52 1000;
#X obj 279 641 *~ 5000;
#X obj 343 636 *~ 5000;
#X msg -65 462 0.011;
#X msg -90 489 0.055;
#X msg 154 375 0.01;
#X msg 33 43 0.1;
#X obj -9 145 +~ 1;
#X obj 269 698 dac~ 1 2;
#X text -212 -8 "mfas" message sets odum's defaults;
#X text -211 -49 war~;
#X text -211 -35 simulates "competition with negative interactions"
h. t. odum \, "modeling for all scales" \, 2000;
#X connect 0 0 86 0;
#X connect 0 0 87 0;
#X connect 0 0 88 0;
#X connect 1 0 0 1;
#X connect 2 0 0 0;
#X connect 3 0 0 0;
#X connect 4 0 1 0;
#X connect 5 0 9 0;
#X connect 6 0 7 0;
#X connect 7 0 101 0;
#X connect 8 0 100 0;
#X connect 8 0 10 0;
#X connect 8 0 94 0;
#X connect 9 0 10 1;
#X connect 10 0 86 0;
#X connect 10 1 87 0;
#X connect 10 1 95 0;
#X connect 10 2 88 0;
#X connect 10 2 96 0;
#X connect 11 0 10 2;
#X connect 13 0 10 3;
#X connect 15 0 10 4;
#X connect 17 0 10 5;
#X connect 18 0 10 6;
#X connect 19 0 10 7;
#X connect 20 0 10 8;
#X connect 21 0 10 9;
#X connect 22 0 10 10;
#X connect 23 0 10 11;
#X connect 24 0 10 12;
#X connect 25 0 10 13;
#X connect 35 0 10 14;
#X connect 36 0 10 15;
#X connect 37 0 10 16;
#X connect 38 0 10 17;
#X connect 39 0 10 18;
#X connect 40 0 10 19;
#X connect 41 0 10 20;
#X connect 42 0 10 21;
#X connect 43 0 10 22;
#X connect 44 0 10 23;
#X connect 45 0 10 24;
#X connect 46 0 10 25;
#X connect 47 0 10 26;
#X connect 48 0 10 27;
#X connect 63 0 11 0;
#X connect 64 0 13 0;
#X connect 65 0 15 0;
#X connect 66 0 17 0;
#X connect 67 0 18 0;
#X connect 68 0 19 0;
#X connect 69 0 22 0;
#X connect 70 0 23 0;
#X connect 71 0 24 0;
#X connect 72 0 25 0;
#X connect 73 0 35 0;
#X connect 74 0 36 0;
#X connect 75 0 38 0;
#X connect 76 0 39 0;
#X connect 77 0 40 0;
#X connect 78 0 41 0;
#X connect 79 0 42 0;
#X connect 80 0 43 0;
#X connect 81 0 44 0;
#X connect 82 0 45 0;
#X connect 83 0 46 0;
#X connect 84 0 47 0;
#X connect 85 0 48 0;
#X connect 89 0 4 0;
#X connect 89 0 94 0;
#X connect 89 0 63 0;
#X connect 89 0 64 0;
#X connect 89 0 65 0;
#X connect 89 0 66 0;
#X connect 89 0 67 0;
#X connect 89 0 68 0;
#X connect 89 0 97 0;
#X connect 89 0 98 0;
#X connect 89 0 69 0;
#X connect 89 0 70 0;
#X connect 89 0 71 0;
#X connect 89 0 72 0;
#X connect 89 0 73 0;
#X connect 89 0 74 0;
#X connect 89 0 99 0;
#X connect 89 0 75 0;
#X connect 89 0 76 0;
#X connect 89 0 77 0;
#X connect 89 0 78 0;
#X connect 89 0 79 0;
#X connect 89 0 80 0;
#X connect 89 0 81 0;
#X connect 89 0 82 0;
#X connect 89 0 83 0;
#X connect 89 0 84 0;
#X connect 89 0 85 0;
#X connect 90 0 89 0;
#X connect 91 0 90 0;
#X connect 92 0 102 0;
#X connect 93 0 102 1;
#X connect 94 0 5 0;
#X connect 95 0 92 0;
#X connect 96 0 93 0;
#X connect 97 0 20 0;
#X connect 98 0 21 0;
#X connect 99 0 37 0;
#X connect 100 0 6 0;
#X connect 101 0 10 0;
